<svg xmlns="http://www.w3.org/2000/svg" viewBox="0 0 820 980" role="img" aria-label="Elegant female model illustration">
  <defs>
    <linearGradient id="bg" x1="0" y1="0" x2="1" y2="1">
      <stop offset="0" stop-color="#f8e2b4"/>
      <stop offset="0.45" stop-color="#d6ab4b"/>
      <stop offset="1" stop-color="#a16f19"/>
    </linearGradient>
    <radialGradient id="glow" cx="60%" cy="22%" r="55%">
      <stop offset="0" stop-color="#fff7df" stop-opacity="0.9"/>
      <stop offset="1" stop-color="#fff7df" stop-opacity="0"/>
    </radialGradient>
    <linearGradient id="skin" x1="0" y1="0" x2="0.9" y2="1">
      <stop offset="0" stop-color="#ffd7b7"/>
      <stop offset="1" stop-color="#e8ab78"/>
    </linearGradient>
    <linearGradient id="hair" x1="0" y1="0" x2="1" y2="1">
      <stop offset="0" stop-color="#5f3921"/>
      <stop offset="1" stop-color="#2c180f"/>
    </linearGradient>
  </defs>
  <rect width="820" height="980" fill="url(#bg)"/>
  <rect width="820" height="980" fill="url(#glow)"/>
  <circle cx="554" cy="410" r="280" fill="rgba(255,248,232,0.28)"/>
  <path d="M337 716c-22-153 69-321 202-360 88-26 189 12 244 89 77 109 32 307-129 392-122 64-291 37-317-121Z" fill="url(#hair)" opacity="0.95"/>
  <ellipse cx="593" cy="480" rx="156" ry="188" fill="url(#skin)"/>
  <ellipse cx="575" cy="462" rx="118" ry="140" fill="#f9c39a" opacity="0.75"/>
  <ellipse cx="545" cy="448" rx="16" ry="10" fill="#5a341f"/>
  <ellipse cx="629" cy="450" rx="14" ry="10" fill="#5a341f"/>
  <path d="M538 546c19 18 67 19 94-2" stroke="#b86a46" stroke-width="8" stroke-linecap="round" fill="none"/>
  <path d="M469 635c90 36 211 33 302-4 33 64 30 142-10 211H415c-5-71 22-141 54-207Z" fill="#fff3e0" opacity="0.84"/>
  <circle cx="678" cy="392" r="18" fill="#efbf95"/>
  <circle cx="667" cy="392" r="9" fill="#f6d0aa"/>
  <path d="M469 392c6-54 22-109 68-146 59-48 150-53 220-26 74 29 130 89 141 166-36-50-96-80-160-95-82-20-185-8-269 101Z" fill="url(#hair)"/>
  <path d="M462 576c42 34 109 40 162 20" stroke="#edc39f" stroke-width="14" stroke-linecap="round"/>
  <g opacity="0.35" fill="#fff7df">
    <circle cx="128" cy="148" r="2"/><circle cx="244" cy="120" r="2"/><circle cx="204" cy="203" r="1.8"/>
    <circle cx="366" cy="132" r="2"/><circle cx="421" cy="180" r="1.6"/><circle cx="485" cy="118" r="2"/>
    <circle cx="585" cy="160" r="2"/><circle cx="712" cy="131" r="2"/><circle cx="756" cy="202" r="2"/>
  </g>
</svg>
